<?xml version="1.0" encoding="utf-8"?>
<!-- Generator: Adobe Illustrator 21.0.2, SVG Export Plug-In . SVG Version: 6.00 Build 0)  -->
<svg version="1.1" id="scroll-here_1_" xmlns="http://www.w3.org/2000/svg" xmlns:xlink="http://www.w3.org/1999/xlink" x="0px"
	 y="0px" viewBox="0 0 131 14" style="enable-background:new 0 0 131 14;" xml:space="preserve">
<style type="text/css">
	.st0{fill:#84BD00;}
	.st1{fill-rule:evenodd;clip-rule:evenodd;fill:#84BD00;}
</style>
<g id="scroll_here">
	<g>
		<path class="st0" d="M8.1,9.5c0,1.1-0.4,2-1.2,2.7s-2,1-3.4,1S0.8,13-0.1,12.5v-2c0.6,0.3,1.2,0.5,1.9,0.7s1.3,0.2,1.8,0.2
			c0.8,0,1.4-0.2,1.8-0.5S6,10.2,6,9.7c0-0.5-0.2-0.9-0.5-1.2S4.4,7.7,3.2,7.2c-1.2-0.5-2-1-2.5-1.6S0,4.3,0,3.4
			c0-1.1,0.4-1.9,1.1-2.5S3,0,4.2,0c1.2,0,2.5,0.3,3.7,0.8L7.2,2.5C6.1,2,5.1,1.8,4.2,1.8C3.5,1.8,3,1.9,2.6,2.2S2.1,2.9,2.1,3.4
			c0,0.3,0.1,0.6,0.2,0.9S2.7,4.7,3,4.9s0.9,0.5,1.7,0.8c0.9,0.4,1.6,0.8,2.1,1.1s0.8,0.7,1,1.2S8.1,8.9,8.1,9.5z"/>
		<path class="st0" d="M16.1,1.8c-1.2,0-2.2,0.4-2.8,1.3s-1,2-1,3.5c0,1.6,0.3,2.8,1,3.6s1.6,1.2,2.9,1.2c0.5,0,1.1-0.1,1.6-0.2
			s1-0.2,1.6-0.4v1.8c-1,0.4-2.2,0.6-3.4,0.6c-1.9,0-3.3-0.6-4.3-1.7S10,8.7,10,6.6c0-1.3,0.2-2.5,0.7-3.5s1.2-1.8,2.1-2.3
			s2-0.8,3.3-0.8c1.3,0,2.5,0.3,3.6,0.8L19,2.5c-0.4-0.2-0.9-0.4-1.4-0.5S16.6,1.8,16.1,1.8z"/>
		<path class="st0" d="M24.1,7.9V13H22V0.2h3.6c1.7,0,2.9,0.3,3.7,0.9s1.2,1.6,1.2,2.8c0,1.6-0.8,2.7-2.5,3.4l3.6,5.7h-2.4l-3.1-5.1
			H24.1z M24.1,6.1h1.5c1,0,1.7-0.2,2.1-0.5s0.7-0.9,0.7-1.6c0-0.7-0.2-1.2-0.7-1.6s-1.2-0.5-2.1-0.5h-1.4V6.1z"/>
		<path class="st0" d="M44.9,6.6c0,2.1-0.5,3.7-1.6,4.9s-2.5,1.7-4.4,1.7c-1.9,0-3.4-0.6-4.5-1.7c-1-1.2-1.6-2.8-1.6-4.9
			s0.5-3.8,1.6-4.9s2.5-1.7,4.5-1.7c1.9,0,3.4,0.6,4.4,1.7S44.9,4.5,44.9,6.6z M35.1,6.6c0,1.6,0.3,2.8,1,3.6
			c0.6,0.8,1.6,1.2,2.8,1.2c1.2,0,2.2-0.4,2.8-1.2s1-2,1-3.6c0-1.6-0.3-2.8-0.9-3.6s-1.6-1.2-2.8-1.2c-1.3,0-2.2,0.4-2.9,1.2
			S35.1,5,35.1,6.6z"/>
		<path class="st0" d="M47.7,13V0.2h2.1v11h5.4V13H47.7z"/>
		<path class="st0" d="M57.4,13V0.2h2.1v11H65V13H57.4z"/>
		<path class="st0" d="M82,13h-2.1V7.2H74V13h-2.1V0.2H74v5.3h5.9V0.2H82V13z"/>
		<path class="st0" d="M92.6,13h-7.3V0.2h7.3v1.8h-5.2v3.5h4.8v1.8h-4.8v4h5.2V13z"/>
		<path class="st0" d="M97.5,7.9V13h-2.1V0.2h3.6c1.7,0,2.9,0.3,3.7,0.9s1.2,1.6,1.2,2.8c0,1.6-0.8,2.7-2.5,3.4l3.6,5.7h-2.4
			l-3.1-5.1H97.5z M97.5,6.1H99c1,0,1.7-0.2,2.1-0.5s0.7-0.9,0.7-1.6c0-0.7-0.2-1.2-0.7-1.6s-1.2-0.5-2.1-0.5h-1.4V6.1z"/>
		<path class="st0" d="M114.2,13h-7.3V0.2h7.3v1.8H109v3.5h4.8v1.8H109v4h5.2V13z"/>
	</g>
</g>
<g id="arrow">
	<g>
		<polygon class="st1" points="121,1 121,13 131,7 		"/>
	</g>
</g>
</svg>
