<?xml version="1.0" encoding="utf-8"?>
<!-- Generator: Adobe Illustrator 22.1.0, SVG Export Plug-In . SVG Version: 6.00 Build 0)  -->
<svg version="1.1" id="Layer_1" xmlns="http://www.w3.org/2000/svg" xmlns:xlink="http://www.w3.org/1999/xlink" x="0px" y="0px"
	 viewBox="0 0 260.3 22.4" style="enable-background:new 0 0 260.3 22.4;" xml:space="preserve">
<style type="text/css">
	.st0{fill:#9E1C20;}
</style>
<g>
	<polygon class="st0" points="247.6,-1.5 247.6,21.8 260.3,10.1 	"/>
	<g>
		<path class="st0" d="M17.4,17.5v4.4H0V0h5.2v17.5H17.4z"/>
		<path class="st0" d="M39.9,17.5v4.4H21.4V0h18.4v4.3H26.6v4.2h12.1v4.4H26.6v4.6H39.9z"/>
		<path class="st0" d="M59.1,17.2h-9l-1.7,4.7h-5.6l9-21.9h5.9l9,21.9h-5.8L59.1,17.2z M57.5,13.1l-2.9-8l-2.9,8H57.5z"/>
		<path class="st0" d="M79.7,14.4h-4.7v7.5h-5.2V0h10.6c3,0,5.6,0.5,7.2,2.1c1.3,1.3,1.9,3.2,1.9,5c0,3.3-1.6,5.5-4.5,6.5l5.2,8.3
			h-6.2L79.7,14.4z M75.1,10h5.7c2.3,0,3.5-0.8,3.5-2.9c0-1.7-1.1-2.9-3.6-2.9h-5.7V10z"/>
		<path class="st0" d="M116,0v21.9h-5.3l-11-14.1v14.1h-5.2V0h5.4l10.9,14.1V0H116z"/>
		<path class="st0" d="M156.3,0v21.9h-5.2V8.1l-5.9,13.8h-5.7l-5.9-13.8v13.8h-5.2V0h6.7l7.2,16.4L149.5,0H156.3z"/>
		<path class="st0" d="M161,11c0-6.9,4.5-11.5,11.8-11.5c7.3,0,11.7,4.6,11.7,11.5s-4.4,11.4-11.7,11.4C165.5,22.4,161,17.8,161,11z
			 M179.2,11c0-4.7-2.5-7-6.4-7s-6.4,2.4-6.4,7c0,4.6,2.5,6.9,6.4,6.9S179.2,15.6,179.2,11z"/>
		<path class="st0" d="M199.2,14.4h-4.7v7.5h-5.2V0H200c3,0,5.6,0.5,7.2,2.1c1.3,1.3,1.9,3.2,1.9,5c0,3.3-1.5,5.5-4.5,6.5l5.2,8.3
			h-6.2L199.2,14.4z M194.6,10h5.7c2.3,0,3.5-0.8,3.5-2.9c0-1.7-1.1-2.9-3.6-2.9h-5.7V10z"/>
		<path class="st0" d="M232.5,17.5v4.4H214V0h18.4v4.3h-13.2v4.2h12.1v4.4h-12.1v4.6H232.5z"/>
	</g>
</g>
</svg>
