<?xml version="1.0" encoding="utf-8"?>
<!-- Generator: Adobe Illustrator 23.0.0, SVG Export Plug-In . SVG Version: 6.00 Build 0)  -->
<svg version="1.1" id="Layer_1" xmlns="http://www.w3.org/2000/svg" xmlns:xlink="http://www.w3.org/1999/xlink" x="0px" y="0px"
	 viewBox="0 0 360 102" style="enable-background:new 0 0 360 102;" xml:space="preserve">
<style type="text/css">
	.st0{fill:#828384;}
	.st1{fill:#4C4D4E;}
	.st2{fill:#9E0B0F;}
	.st3{fill:#D71920;}
</style>
<title>SHI_RGB_FC</title>
<path class="st0" d="M107.1,61.3v-0.6c0-5.9,2.3-10.2,6.5-11v2.8c-2.1,1.1-2.9,4-2.9,8.3v0.3c0,4.3,0.8,7.2,2.9,8.3v2.9
	C109.3,71.4,107.1,67.3,107.1,61.3z M115.6,66.9l4.2-11.6h-4.1v-3.8h8.5v3.2L120,66.3h4.2v3.8h-8.6V66.9z M125.3,61.4v-1.2
	c0-6.1,2.1-9.1,5.5-9.1c3.4,0,5.5,3,5.5,9.1v1.2c0,6-2.1,9.1-5.5,9.1S125.3,67.4,125.3,61.4z M132.2,61.4v-1.2
	c0-4.4-0.5-5.4-1.4-5.4s-1.4,1-1.4,5.4v1.2c0,4.4,0.6,5.3,1.4,5.3S132.2,65.8,132.2,61.4L132.2,61.4z M137.9,69.4v-4
	c1,0.6,2.1,1,3.3,1.1c0.7,0.1,1.4-0.4,1.5-1.1c0-0.1,0-0.2,0-0.3l0,0c0-0.6-0.4-1.2-1.6-2.5c-2.4-2.2-3.4-3.5-3.4-6v-0.1
	c-0.2-2.7,1.8-5,4.5-5.2c0.2,0,0.3,0,0.5,0c1.1,0,2.3,0.2,3.3,0.7v4c-1-0.7-2-1-3-1c-0.7-0.1-1.3,0.5-1.4,1.2v0.1l0,0
	c0,0.7,0.4,1.2,1.6,2.4c2.5,2.5,3.4,3.8,3.4,6.2V65c0.1,2.8-2,5.1-4.8,5.2c-0.1,0-0.2,0-0.2,0C140.3,70.3,139,70,137.9,69.4z
	 M149.8,55.3h-2.4v-3.8h8.9v3.8h-2.4v14.8h-4V55.3H149.8z M158,51.5h8v3.8h-4v3.6h3.6v3.7H162v3.7h4.2v3.8H158V51.5z M168,51.5h4
	c1.7-0.1,3.3,0.4,4.6,1.5c1.1,1.2,1.7,2.8,1.6,4.5v0.3c0.1,1.9-0.7,3.8-2.2,5l2.5,7.4h-4.3l-1.9-6.1H172v6.1h-4V51.5z M172.1,60.7
	c1.1,0,2-0.7,2-2.6v-0.4c0-2-0.9-2.6-2-2.6H172v5.7h0.1V60.7z M183.6,51.5h4.1l1.6,11.2l1.6-11.2h4l-3.5,18.7h-4.2L183.6,51.5z
	 M197.9,51.5h4.6l3.6,18.7h-4l-0.5-3.4h-2.8l-0.5,3.4h-3.9L197.9,51.5z M201,63.3l-0.9-5.9l-0.9,5.9H201z M206.6,61.3v-0.9
	c0-6.6,2.9-9.1,6.2-9.1c0.8,0,1.7,0.1,2.4,0.5v4c-0.6-0.4-1.3-0.6-2-0.7c-1.3,0-2.5,1.1-2.5,5.3v0.7c0,4.4,1.1,5.3,2.6,5.3
	c0.7,0,1.4-0.3,2-0.7v3.8c-0.8,0.5-1.8,0.7-2.8,0.7C209.2,70.3,206.6,67.6,206.6,61.3L206.6,61.3z M216.4,61.3v-0.9
	c0-6.6,2.9-9.1,6.2-9.1c0.8,0,1.7,0.1,2.4,0.5v4c-0.6-0.4-1.3-0.6-2-0.7c-1.3,0-2.5,1.1-2.5,5.3v0.7c0,4.4,1.1,5.3,2.6,5.3
	c0.7,0,1.4-0.3,2-0.7v3.8c-0.8,0.5-1.8,0.7-2.8,0.7C218.9,70.3,216.3,67.6,216.4,61.3L216.4,61.3z M227,51.5h4v18.7h-4V51.5z
	 M233.2,51.5h3.8l2.9,8.4v-8.4h3.8v18.7h-3.6l-3.1-8.9v8.9h-3.8L233.2,51.5z M245.9,51.5h8.1v3.8h-4.1v3.6h3.6v3.7h-3.6v3.7h4.1v3.8
	h-8.1V51.5z M108.8,79.5h4c1.7-0.1,3.3,0.5,4.6,1.6c1.1,1.2,1.7,2.8,1.6,4.5v0.3c0.1,1.9-0.7,3.8-2.2,5l2.5,7.4H115l-1.9-6.2h-0.3
	v6.1h-4L108.8,79.5z M112.9,88.7c1.1,0,2-0.7,2-2.6v-0.4c0-2-0.9-2.6-2-2.6h-0.1L112.9,88.7L112.9,88.7L112.9,88.7z M120.7,79.5h8.1
	v3.8h-4.1v3.6h3.6v3.7h-3.6v3.7h4.2v3.8h-8.2L120.7,79.5z M130.2,89.3v-0.9c0-6.6,2.9-9.1,6.1-9.1c0.8,0,1.7,0.1,2.4,0.5v4
	c-0.6-0.4-1.3-0.6-2-0.7c-1.3,0-2.5,1.1-2.5,5.3v0.7c0,4.4,1.1,5.3,2.6,5.3c0.7,0,1.4-0.3,2-0.7v3.8c-0.8,0.5-1.8,0.8-2.8,0.7
	C132.7,98.3,130.1,95.5,130.2,89.3L130.2,89.3z M139.9,89.4v-1.2c0-6.1,2.1-9.1,5.5-9.1s5.5,3,5.5,9.1v1.2c0,6.1-2.1,9.1-5.5,9.1
	S139.9,95.4,139.9,89.4L139.9,89.4z M146.8,89.4v-1.3c0-4.4-0.5-5.3-1.4-5.3s-1.4,1-1.4,5.3v1.3c0,4.4,0.6,5.3,1.4,5.3
	S146.8,93.8,146.8,89.4L146.8,89.4z M152.8,79.4h3.9l2.2,6.2l2.2-6.2h3.9v18.7h-4v-10l-2.2,6.1h-0.1l-2.2-6.1v10h-3.8L152.8,79.4z
	 M167.1,79.4h3.7c1.8-0.1,3.6,0.4,5,1.6c0.8,0.9,1.3,2,1.2,3.2v0.2c0,1.7-0.9,3.3-2.5,4c1.7,0.7,2.8,2.3,2.8,4.1v0.2
	c0,3.5-2.6,5.2-6.4,5.2H167L167.1,79.4z M173.1,85c0.1-0.9-0.6-1.8-1.5-1.9c-0.2,0-0.3,0-0.5,0h-0.2v4h0.2c1,0.1,1.9-0.6,2-1.6
	C173.1,85.4,173.1,85.2,173.1,85L173.1,85z M171.2,90.3H171v4.1h0.2c1,0.1,2-0.6,2.1-1.6c0-0.1,0-0.2,0-0.4v-0.1c0-1-0.8-1.9-1.8-2
	C171.3,90.3,171.2,90.3,171.2,90.3L171.2,90.3z M178.9,79.4h4v18.7h-4V79.4z M185.1,79.4h3.8l2.9,8.4v-8.4h3.8v18.7H192l-3.1-8.9
	v8.9H185L185.1,79.4z M200.6,79.4h4.6l3.6,18.7h-4l-0.5-3.4h-2.8l-0.5,3.4h-4L200.6,79.4z M203.7,91.3l-0.9-5.9l-0.9,5.9H203.7z
	 M210,79.4h3.8l2.9,8.4v-8.4h3.8V98h-3.7l-3.1-8.9V98H210V79.4z M224.7,83.2h-2.5v-3.8h8.9v3.8h-2.5V98h-4L224.7,83.2z M230.6,100.5
	c1.9-0.4,2.4-1.5,2.4-2.4h-2v-4.3h4.3v3.5c0,2.9-1.6,4.4-4.3,4.7L230.6,100.5z M244.2,79.4h4.6l3.5,18.7h-4l-0.5-3.4H245l-0.5,3.4
	h-3.9L244.2,79.4z M247.4,91.3l-0.9-5.9l-0.9,5.9H247.4z M253.7,79.4h3.7c4.5,0,7,3.1,7,8.9v0.9c0,5.8-2.4,8.9-7,8.9h-3.7V79.4z
	 M257.7,83.1v11.3c1.5,0,2.6-1.1,2.6-5.2v-1C260.3,84.2,259.1,83.1,257.7,83.1L257.7,83.1z M265.2,97.9v-3.8
	c0.5,0.2,1.1,0.3,1.7,0.3c0.9,0,1.5-0.5,1.5-1.7V79.4h4v13.7c0.1,1.5-0.3,2.9-1.3,4c-0.9,0.9-2.1,1.3-3.4,1.2
	C266.9,98.3,266,98.2,265.2,97.9L265.2,97.9z M274.5,92.5V79.4h4v13.4c0,1.3,0.5,1.9,1.1,1.9s1.1-0.5,1.1-1.9V79.4h4v13.1
	c0,4.1-2.2,5.9-5.2,5.9S274.4,96.6,274.5,92.5L274.5,92.5z M286,79.4h4.1l1.6,11.2l1.6-11.2h4l-3.5,18.7h-4.2L286,79.4z M300.3,79.4
	h4.6l3.5,18.7h-4l-0.5-3.4H301l-0.5,3.4h-3.9L300.3,79.4z M303.4,91.3l-0.9-5.9l-0.9,5.9H303.4z M309.7,79.4h3.8l2.9,8.4v-8.4h3.8
	v18.7h-3.6l-3.1-8.9v8.9h-3.8L309.7,79.4L309.7,79.4z M324.4,83.3h-2.5v-3.8h8.9v3.8h-2.5v14.8h-4L324.4,83.3z M332.5,79.4h8.1v3.8
	h-4.1v3.6h3.6v3.7h-3.6v3.7h4.2V98h-8.2V79.4z M342.6,79.4h3.7c4.5,0,7,3.1,7,8.9v0.9c0,5.8-2.4,8.9-7,8.9h-3.8L342.6,79.4z
	 M346.6,83.1v11.3c1.5,0,2.6-1.1,2.6-5.2v-1C349.2,84.2,348.1,83.1,346.6,83.1L346.6,83.1z M353.5,97.4c2.1-1.1,2.9-3.9,2.9-8.3
	v-0.3c0-4.3-0.7-7.2-2.9-8.3v-2.8c4,0.8,6.5,4.8,6.5,11v0.5c0,6.3-2.5,10.3-6.5,11.1V97.4z"/>
<path class="st1" d="M125,15.2c5.3,1.6,12,3.6,12,11.5c0,6.7-5.7,11.1-14.3,11.1c-5.8,0-11.4-2.3-15.6-6.3l3.4-6.8
	c3.6,3.3,7.6,5.7,12.3,5.7c1.7,0,5.8-0.3,5.8-3.4c0-2.7-2.8-3.7-7.3-5c-5.3-1.5-11.9-3.5-11.9-11.2c0-6.5,5.4-10.8,13.8-10.8
	c4.8,0,9.6,1.5,13.6,4.2l-3.2,6.8c-3.6-2.2-7.1-3.7-10.8-3.7c-1.1,0-4.9,0.2-4.9,2.8S120.6,13.8,125,15.2 M167.1,14.4H150V0.2h-7.7
	v37.3h7.7V22.2h17.1v15.4h7.8V0.2h-7.8V14.4z M182.4,37.5h7.7V0.2h-7.7V37.5z M222.7,24L204.9,0.2h-7.2v37.3h7.8V13.8l17.6,23.7h7.2
	V0.2h-7.6V24z M254.9,7.1c4.3,0,7.5,1.8,10.4,4.5l4.5-5.8C265.7,2,260.4,0,254.9,0C243.7,0,235,8.3,235,18.8s8.6,18.9,19.6,18.9
	c5.3-0.1,10.5-1.8,14.7-5.1V16.2h-15.4v7.1h8.4v5.3c-2.2,1.3-4.7,2-7.3,2.1c-6.5,0.2-11.9-4.9-12.1-11.4s4.9-11.9,11.4-12.1
	C254.5,7.1,254.7,7.1,254.9,7.1 M312.7,37.5h7.7V0.2h-7.7V37.5z M346.4,18.2l12.6-18h-9.1l-8.3,11.7l-8.2-11.7h-9.1l12.6,18.2
	l-13.6,19.1h9.2l9.1-12.8l9.1,12.8h9.3L346.4,18.2z M299.6,25.2c6.5-3.5,8.9-11.5,5.4-18c-2.3-4.3-6.9-7-11.8-7H276v37.3h7.8V26.8
	h8.7l6.5,10.7h8.9L299.6,25.2z M283.7,19.7V7.4h8.6c3.4,0,6.2,2.8,6.2,6.2s-2.8,6.2-6.2,6.2L283.7,19.7z"/>
<polygon class="st0" points="44.1,42.7 35.4,49 44.1,55.4 "/>
<polygon class="st1" points="44.1,55.4 52.8,49 44.1,42.7 "/>
<path class="st2" d="M44.1,85.5l35.4-25.7l8.7-6.3V66L44.1,98.1V85.5z M44.1,21.4l-23.4,17l8.7,6.3L44.1,34V21.4z M44.1,76.7
	l23.4-17l-8.7-6.3L44.1,64.1V76.7z M44.1,12.6V0L0,32.1l8.7,6.3L44.1,12.6z"/>
<path class="st3" d="M88.2,53.4l-44.1-32V34l35.4,25.7L88.2,53.4z M44.1,64.1L8.7,38.4L0,32.1v12.6l44.1,32V64.1z M4.3,56.6
	l39.8,28.9v12.6L4.3,69.2V56.6z M83.9,28.9v12.6L44.1,12.6V0L83.9,28.9z"/>
</svg>
