<?xml version="1.0" encoding="utf-8"?>
<!-- Generator: Adobe Illustrator 21.0.2, SVG Export Plug-In . SVG Version: 6.00 Build 0)  -->
<svg version="1.1" id="PRESCRIBING_INFORMATION__x3E_"
	 xmlns="http://www.w3.org/2000/svg" xmlns:xlink="http://www.w3.org/1999/xlink" x="0px" y="0px" viewBox="0 0 600 500"
	 style="enable-background:new 0 0 600 500;" xml:space="preserve">
<style type="text/css">
	.st0{fill:#FFFFFF;}
</style>
<g>
	<path class="st0" d="M28.1,313.2c0,1.8-1.2,2.8-3.3,2.8h-2.6v3h-1.6v-8.5h4.2C26.9,310.5,28.1,311.6,28.1,313.2z M26.5,313.2
		c0-1-0.6-1.4-1.7-1.4h-2.6v2.7h2.6C25.9,314.6,26.5,314.3,26.5,313.2z"/>
	<path class="st0" d="M33.7,315.9h-2.2v3.1h-1.6v-8.5H34c1.1,0,2,0.2,2.6,0.8c0.5,0.5,0.7,1.1,0.7,1.9c0,1.4-0.6,2.2-2,2.5l2.2,3.3
		h-1.9L33.7,315.9z M31.4,314.5H34c1.1,0,1.7-0.3,1.7-1.3c0-0.9-0.6-1.3-1.7-1.3h-2.6V314.5z"/>
	<path class="st0" d="M46.2,317.6v1.4h-7v-8.5h6.9v1.4h-5.4v2.1h4.9v1.4h-4.9v2.3H46.2z"/>
	<path class="st0" d="M47.6,318.1l0.6-1.2c0.9,0.6,2.1,0.9,3.2,0.9c1,0,2.1-0.2,2.1-1c0-0.7-1.2-1-2.2-1.2c-1.7-0.4-3.3-0.9-3.3-2.7
		c0-1.8,1.7-2.5,3.6-2.5c1.2,0,2.4,0.3,3.4,0.9l-0.6,1.2c-1-0.4-1.9-0.7-2.9-0.7c-1,0-1.9,0.3-1.9,1c0,0.8,1.4,1.1,2.3,1.3
		c1.7,0.4,3.3,1,3.3,2.6c0,1.8-1.7,2.6-3.7,2.6C50.1,319.2,48.7,318.8,47.6,318.1z"/>
	<path class="st0" d="M56.6,314.8c0-2.8,2.1-4.4,4.5-4.4c1.4,0,2.7,0.5,3.6,1.4l-0.9,1c-0.7-0.6-1.7-1-2.7-1c-1.7,0-3,1.2-3,3
		c0,1.9,1.3,3,3,3c0.9,0,1.9-0.4,2.6-1l0.9,0.9c-0.9,0.9-2.3,1.5-3.6,1.5C58.6,319.2,56.6,317.5,56.6,314.8z"/>
	<path class="st0" d="M70.2,315.9H68v3.1h-1.6v-8.5h4.2c1.1,0,2,0.2,2.6,0.8c0.5,0.5,0.7,1.1,0.7,1.9c0,1.4-0.6,2.2-2,2.5l2.2,3.3
		h-1.9L70.2,315.9z M68,314.5h2.6c1.1,0,1.7-0.3,1.7-1.3c0-0.9-0.6-1.3-1.7-1.3H68V314.5z"/>
	<path class="st0" d="M75.8,310.5h1.6v8.5h-1.6V310.5z"/>
	<path class="st0" d="M84.3,319h-4.6v-8.5h4.5c1.8,0,2.7,0.9,2.7,2.3c0,0.9-0.5,1.6-1.1,1.8c0.9,0.3,1.5,1,1.5,2.1
		C87.3,318.3,86.1,319,84.3,319z M81.2,311.9v2.1h2.9c0.8,0,1.3-0.3,1.3-1c0-0.8-0.6-1.1-1.4-1.1H81.2z M84.2,315.3h-3v2.3h2.9
		c1,0,1.6-0.2,1.6-1.2C85.7,315.7,85.1,315.3,84.2,315.3z"/>
	<path class="st0" d="M89.1,310.5h1.6v8.5h-1.6V310.5z"/>
	<path class="st0" d="M101.1,310.5v8.5h-1.6l-4.9-6.1v6.1H93v-8.5h1.6l4.9,6.1v-6.1H101.1z"/>
	<path class="st0" d="M103,314.8c0-2.7,1.9-4.4,4.6-4.4c1.4,0,2.6,0.5,3.5,1.4l-0.9,1c-0.7-0.6-1.6-1-2.6-1c-1.7,0-3.1,1.1-3.1,3
		c0,1.9,1.4,3,3.1,3c0.8,0,1.6-0.2,2.2-0.6v-1.7h-2.4v-1.3h3.9v3.7c-1.1,0.9-2.5,1.3-3.8,1.3C104.9,319.2,103,317.5,103,314.8z"/>
	<path class="st0" d="M116.1,310.5h1.6v8.5h-1.6V310.5z"/>
	<path class="st0" d="M128,310.5v8.5h-1.6l-4.9-6.1v6.1h-1.6v-8.5h1.6l4.9,6.1v-6.1H128z"/>
	<path class="st0" d="M131.8,311.9v2.2h4.7v1.4h-4.7v3.5h-1.6v-8.5h6.7v1.4H131.8z"/>
	<path class="st0" d="M138.4,314.8c0-2.7,1.8-4.4,4.5-4.4c2.7,0,4.5,1.8,4.5,4.4s-1.8,4.4-4.5,4.4
		C140.2,319.2,138.4,317.4,138.4,314.8z M145.8,314.8c0-2-1.2-3.1-2.9-3.1c-1.7,0-2.9,1-2.9,3.1c0,2,1.2,3,2.9,3
		C144.6,317.8,145.8,316.8,145.8,314.8z"/>
	<path class="st0" d="M153.1,315.9h-2.2v3.1h-1.6v-8.5h4.2c1.1,0,2,0.2,2.6,0.8c0.5,0.5,0.7,1.1,0.7,1.9c0,1.4-0.6,2.2-2,2.5
		l2.2,3.3h-1.9L153.1,315.9z M150.9,314.5h2.6c1.1,0,1.7-0.3,1.7-1.3c0-0.9-0.6-1.3-1.7-1.3h-2.6V314.5z"/>
	<path class="st0" d="M169.2,310.5v8.5h-1.6v-6l-2.9,6h-1.7l-2.9-6v6h-1.6v-8.5h1.9l3.4,6.9l3.4-6.9H169.2z"/>
	<path class="st0" d="M176.8,316.9h-3.8l-0.9,2.1h-1.7l3.6-8.5h1.7l3.6,8.5h-1.8L176.8,316.9z M176.3,315.5l-1.4-3.5l-1.4,3.5H176.3
		z"/>
	<path class="st0" d="M187.6,311.9h-3.1v7.1H183v-7.1h-3.1v-1.4h7.7V311.9z"/>
	<path class="st0" d="M188.9,310.5h1.6v8.5h-1.6V310.5z"/>
	<path class="st0" d="M192.5,314.8c0-2.7,1.8-4.4,4.5-4.4c2.7,0,4.5,1.8,4.5,4.4s-1.8,4.4-4.5,4.4
		C194.2,319.2,192.5,317.4,192.5,314.8z M199.8,314.8c0-2-1.2-3.1-2.9-3.1c-1.7,0-2.9,1-2.9,3.1c0,2,1.2,3,2.9,3
		C198.7,317.8,199.8,316.8,199.8,314.8z"/>
	<path class="st0" d="M211.5,310.5v8.5h-1.6l-4.9-6.1v6.1h-1.6v-8.5h1.6l4.9,6.1v-6.1H211.5z"/>
	<path class="st0" d="M216.3,317l4.1-1.9l-4.1-1.9v-1.4l5.5,2.7v1.3l-5.5,2.6V317z"/>
	<path class="st0" d="M19.5,321.7V321h193.1v0.8H19.5z"/>
</g>
</svg>
