<?xml version="1.0" encoding="utf-8"?>
<!-- Generator: Adobe Illustrator 14.0.0, SVG Export Plug-In . SVG Version: 6.00 Build 43363)  -->
<!DOCTYPE svg PUBLIC "-//W3C//DTD SVG 1.1//EN" "http://www.w3.org/Graphics/SVG/1.1/DTD/svg11.dtd">
<svg version="1.1" id="Layer_1" xmlns="http://www.w3.org/2000/svg" xmlns:xlink="http://www.w3.org/1999/xlink" x="0px" y="0px"
	 width="595.28px" height="55.651px" viewBox="0 393.745 595.28 55.651" enable-background="new 0 393.745 595.28 55.651"
	 xml:space="preserve">
<g>
	<g>
		<path fill="#8A898C" d="M0,430.012l10.63-1.251c0.625,3.752,1.876,6.878,3.752,8.129s4.377,2.501,8.129,2.501
			c3.751,0,6.253-0.625,8.128-2.501c1.876-1.876,2.501-3.127,2.501-5.003c0-1.25-0.625-2.501-1.25-3.126
			c-0.625-0.625-2.501-1.251-4.377-2.501c-1.25,0-3.751-0.625-8.128-1.876c-5.628-1.251-10.005-3.127-12.506-5.003
			c-3.126-3.126-5.002-6.253-5.002-10.63c0-2.501,0.625-5.002,2.501-7.503c1.876-2.502,3.752-4.378,6.878-5.628
			c3.126-1.251,6.253-2.501,10.004-2.501c6.878,0,11.881,1.25,15.007,4.377c3.126,3.126,5.002,6.878,5.627,11.88l-10.63,0.626
			c-0.625-2.501-1.25-5.003-3.126-6.253c-1.876-1.251-3.752-1.876-6.878-1.876s-5.627,0.625-7.503,1.876
			c-0.625,1.25-1.25,2.501-1.25,3.752c0,1.25,0.625,2.501,1.876,3.126c0.625,1.251,4.377,2.501,9.379,3.752
			c5.002,1.25,9.379,2.501,11.88,3.752c2.501,1.25,4.377,3.126,5.628,5.628c1.25,2.501,2.501,5.002,2.501,8.128
			c0,3.127-0.625,6.254-2.501,8.755s-4.377,4.377-7.503,6.253c-3.127,1.876-6.878,1.876-11.881,1.876
			c-6.253,0-11.88-1.876-15.632-5.003C2.501,440.642,0.625,436.265,0,430.012z"/>
		<path fill="#8A898C" d="M86.916,428.136l10.63,3.126c-1.876,5.628-4.377,10.005-8.129,13.132
			c-3.752,3.126-8.129,4.377-13.756,4.377c-6.878,0-13.131-2.502-17.508-7.504s-7.503-11.255-7.503-20.01
			c0-8.754,2.501-15.632,6.878-20.635c4.377-5.002,11.255-7.503,18.759-7.503c6.878,0,11.881,1.876,16.258,5.627
			c2.501,2.502,4.377,5.628,5.627,10.005l-10.63,2.501c-0.625-2.501-1.876-5.002-3.751-6.878c-1.876-1.876-4.377-2.501-7.504-2.501
			c-3.751,0-7.503,1.25-9.379,4.377c-1.875,3.126-5.002,8.129-5.002,14.382c0,6.878,1.25,11.881,3.751,14.382
			c2.501,2.501,5.628,4.377,9.379,4.377c3.126,0,5.628-0.625,7.503-2.501C84.415,435.014,86.291,431.887,86.916,428.136z"/>
		<path fill="#8A898C" d="M106.925,447.52v-53.775h23.136c5.628,0,10.005,0.625,12.506,1.251c2.501,0.625,4.377,2.501,6.253,5.002
			s2.501,5.002,2.501,8.754s-1.251,7.504-3.752,10.005s-5.627,4.377-10.63,5.003c2.501,1.25,4.377,3.126,5.627,4.377
			c1.25,1.25,3.752,4.377,6.253,8.754l6.253,10.63h-13.131l-8.129-11.881c-2.501-4.377-5.002-6.878-5.628-8.129
			c-0.625-1.25-1.875-1.875-3.126-2.501c-1.25-0.625-3.126-0.625-5.627-0.625h-2.501v22.511L106.925,447.52L106.925,447.52z
			 M117.555,416.881h8.129c5.002,0,8.754,0,10.005-0.625c1.25-0.626,2.501-1.251,3.126-2.501c0.625-1.251,1.25-2.502,1.25-3.752
			c0-1.876-0.625-3.127-1.25-4.377c-0.625-1.251-2.501-1.876-4.377-1.876c-0.625,0-3.751,0-8.128,0h-8.754V416.881z"/>
		<path fill="#8A898C" d="M158.825,421.258c0-5.628,0.625-10.005,2.501-13.756c1.251-2.502,3.126-5.003,5.002-7.504
			s4.377-3.752,6.878-5.002c3.751-1.251,7.503-1.876,11.88-1.876c8.129,0,14.382,2.501,18.759,7.503
			c4.377,5.003,6.878,11.881,6.878,20.635c0,8.755-2.501,15.633-6.878,20.635c-4.377,5.003-11.255,7.504-18.759,7.504
			c-8.129,0-14.382-2.501-18.759-7.504C161.951,436.89,158.825,430.012,158.825,421.258z M170.08,420.633
			c0,6.253,1.25,10.63,4.377,13.757c3.126,3.126,6.253,5.002,10.63,5.002s8.129-1.25,10.63-4.377
			c2.501-3.127,4.377-8.129,4.377-14.382s-1.251-10.63-3.752-13.757c-2.501-3.126-6.253-4.377-10.63-4.377s-8.129,1.251-10.63,4.377
			C172.581,410.003,170.08,414.38,170.08,420.633z"/>
		<path fill="#8A898C" d="M220.104,447.52v-53.15h10.63v44.396h26.888v8.754H220.104z"/>
		<path fill="#8A898C" d="M265.75,447.52v-53.15h10.63v44.396h26.887v8.754H265.75z"/>
		<path fill="#8A898C" d="M330.78,447.52v-53.775h10.631v21.26h21.26v-21.26H373.3v53.775h-10.629v-23.136h-21.26v23.761H330.78
			V447.52L330.78,447.52z"/>
		<path fill="#8A898C" d="M385.181,447.52v-53.775h40.02v9.379h-28.764v11.881h26.887v9.38h-26.887v14.382h30.014v8.754H385.181z"/>
		<path fill="#8A898C" d="M435.204,447.52v-53.775h23.137c5.627,0,10.004,0.625,12.506,1.251c2.5,0.625,4.377,2.501,6.252,5.002
			c1.877,2.501,2.502,5.002,2.502,8.754s-1.25,7.504-3.752,10.005s-5.627,4.377-10.631,5.003c2.502,1.25,4.379,3.126,5.629,4.377
			c1.25,1.25,3.752,4.377,6.252,8.754l6.254,10.63h-13.131l-7.504-11.255c-2.502-4.378-5.002-6.879-5.629-8.129
			c-0.625-1.251-1.875-1.876-3.125-2.501c-1.252-0.626-3.752,0-6.254,0h-2.5v22.51L435.204,447.52L435.204,447.52z M445.835,416.881
			h8.129c5.002,0,8.754,0,10.004-0.625c1.25-0.626,2.502-1.251,3.127-2.501c0.625-1.251,1.25-2.502,1.25-3.752
			c0-1.876-0.625-3.127-1.25-4.377c-0.625-1.251-2.502-1.876-4.377-1.876c-0.625,0-3.752,0-8.129,0h-8.754V416.881L445.835,416.881z
			"/>
		<path fill="#8A898C" d="M488.979,447.52v-53.775h40.02v9.379h-28.764v11.881h26.887v9.38h-26.887v14.382h30.014v8.754H488.979z"/>
	</g>
	<polygon fill="#8A898C" points="569.644,399.998 569.644,441.267 595.28,420.633 	"/>
</g>
</svg>
