<?xml version="1.0" encoding="utf-8"?>
<!-- Generator: Adobe Illustrator 21.0.2, SVG Export Plug-In . SVG Version: 6.00 Build 0)  -->
<svg version="1.1" id="Layer_1" xmlns="http://www.w3.org/2000/svg" xmlns:xlink="http://www.w3.org/1999/xlink" x="0px" y="0px"
	 viewBox="0 0 600 500" style="enable-background:new 0 0 600 500;" xml:space="preserve">
<style type="text/css">
	.st0{fill:#FFFFFF;}
</style>
<path class="st0" d="M103.4,162.2v25.3c0,0.2,0,0.4,0,0.7h-0.8c-1.3,0-2.4,0.4-2.4,0.9v6.7c-4.2,1.6-7.1,5.6-7.1,10.2L93,250.8h-2
	c-0.9,0-1.7,1-1.7,2.3v0.7c0,1.2,0.8,2.3,1.7,2.3h10.4l0,0v10.1h-9.8c-0.9,0-1.7,0.9-1.7,2v0.6c0,1.1,0.8,2,1.7,2h25.7
	c0.9,0,1.7-0.9,1.7-2v-0.6c0-1.1-0.8-2-1.7-2h-9.7v-10.1l0,0h9.7c0.9,0,1.7-1,1.7-2.3V253c0-1.2-0.8-2.3-1.7-2.3h-1.5l0.1-44.8
	c0-4.4-2.5-8.1-6.3-9.9v-7c0-0.5-1.1-0.9-2.4-0.9h-0.8c0-0.2,0-0.4,0-0.7v-25.3c0-1.6-0.3-2.9-0.8-2.9h-1.4
	C103.7,159.3,103.4,160.6,103.4,162.2z M106.2,227.6c0,0.8-0.7,1.4-1.5,1.4h-8.5v2v5.1l16.2,9.7v4.9H96.2l0.1-19.7v-2l0,0v-2.8h8.5
	C105.6,226.2,106.2,226.8,106.2,227.6z M104.8,219.3c0.8,0,1.4,0.6,1.4,1.4c0,0.8-0.7,1.4-1.5,1.4h-8.5v-2.8L104.8,219.3z
	 M106.1,213.9c0,0.8-0.7,1.4-1.5,1.4h-8.3v-2.8h8.3C105.4,212.5,106.1,213.1,106.1,213.9z M112.5,205.9c0-2-0.8-3.8-2.1-5.2
	C111.7,202.1,112.5,203.9,112.5,205.9z M110.2,200.5c-1.4-1.4-3.4-2.3-5.6-2.3l0,0C106.8,198.2,108.8,199.1,110.2,200.5z"/>
</svg>
