<?xml version="1.0" encoding="utf-8"?>
<!-- Generator: Adobe Illustrator 21.0.2, SVG Export Plug-In . SVG Version: 6.00 Build 0)  -->
<svg version="1.1" id="Layer_1" xmlns="http://www.w3.org/2000/svg" xmlns:xlink="http://www.w3.org/1999/xlink" x="0px" y="0px"
	 viewBox="0 0 600 500" style="enable-background:new 0 0 600 500;" xml:space="preserve">
<style type="text/css">
	.st0{fill:#FFFFFF;}
</style>
<path class="st0" d="M52.4,162.2l0,25.3c0,0.2,0,0.4,0,0.7h-0.8c-1.3,0-2.4,0.4-2.4,0.9v6.7c-4.2,1.6-7.1,5.6-7.1,10.2l-0.1,44.8
	l-2,0c-0.9,0-1.7,1-1.7,2.3l0,0.7c0,1.2,0.8,2.3,1.7,2.3l10.4,0c0,0,0,0,0,0l0,10.1h-9.8c-0.9,0-1.7,0.9-1.7,2l0,0.6
	c0,1.1,0.8,2,1.7,2l25.7,0c0.9,0,1.7-0.9,1.7-2v-0.6c0-1.1-0.8-2-1.7-2l-9.7,0l0-10.1c0,0,0,0,0,0h9.7c0.9,0,1.7-1,1.7-2.3V253
	c0-1.2-0.8-2.3-1.7-2.3l-1.5,0l0.1-44.8c0-4.4-2.5-8.1-6.3-9.9v-7c0-0.5-1.1-0.9-2.4-0.9h-0.8c0-0.2,0-0.4,0-0.7l0-25.3
	c0-1.6-0.3-2.9-0.8-2.9h-1.4C52.7,159.3,52.4,160.6,52.4,162.2z M55.2,227.6c0,0.8-0.7,1.4-1.5,1.4l-8.5,0l0,2l0,5.1l16.2,9.7l0,4.9
	l-16.2,0l0.1-19.7l0-2h0l0-2.8l8.5,0C54.6,226.2,55.2,226.8,55.2,227.6z M53.8,219.3c0.8,0,1.4,0.6,1.4,1.4c0,0.8-0.7,1.4-1.5,1.4
	l-8.5,0l0-2.8L53.8,219.3z M55.1,213.9c0,0.8-0.7,1.4-1.5,1.4l-8.3,0l0-2.8l8.3,0C54.4,212.5,55.1,213.1,55.1,213.9z M61.5,205.9
	c0-2-0.8-3.8-2.1-5.2C60.7,202.1,61.5,203.9,61.5,205.9z M59.2,200.5c-1.4-1.4-3.4-2.3-5.6-2.3l0,0
	C55.8,198.2,57.8,199.1,59.2,200.5z"/>
</svg>
