<?xml version="1.0" encoding="utf-8"?>
<!-- Generator: Adobe Illustrator 21.0.2, SVG Export Plug-In . SVG Version: 6.00 Build 0)  -->
<svg version="1.1" id="Layer_1" xmlns="http://www.w3.org/2000/svg" xmlns:xlink="http://www.w3.org/1999/xlink" x="0px" y="0px"
	 viewBox="0 0 186 45" style="enable-background:new 0 0 186 45;" xml:space="preserve">
<style type="text/css">
	.st0{fill:#CE3238;}
	.st1{fill:none;stroke:#FFFFFF;stroke-width:1.42;stroke-miterlimit:10;}
	.st2{fill:#FFFFFF;}
</style>
<title>cta</title>
<path class="st0" d="M5.7,0h174.7c3.1,0,5.7,2.5,5.7,5.7v33.7c0,3.1-2.5,5.7-5.7,5.7H5.7C2.5,45,0,42.5,0,39.3V5.7
	C0,2.5,2.5,0,5.7,0z"/>
<g>
	<line class="st1" x1="151.6" y1="17.3" x2="157.1" y2="22.7"/>
	<line class="st1" x1="152" y1="28.4" x2="157.4" y2="21.9"/>
	<g>
		<g>
			<path class="st2" d="M35.4,21.7H40v6.2c-0.7,0.2-1.5,0.4-2.1,0.5c-0.7,0.1-1.4,0.2-2.2,0.2c-1.9,0-3.3-0.6-4.3-1.7
				s-1.5-2.7-1.5-4.7s0.6-3.6,1.7-4.7c1.1-1.1,2.7-1.7,4.7-1.7c1.3,0,2.5,0.2,3.7,0.7l-0.7,1.7c-1-0.5-2-0.7-3-0.7
				c-1.3,0-2.4,0.4-3.1,1.2s-1.2,2-1.2,3.4c0,1.5,0.3,2.7,1,3.5s1.7,1.2,3,1.2c0.7,0,1.4-0.1,2.1-0.2v-3.2h-2.6v-1.7H35.4z"/>
			<path class="st2" d="M49.7,28.4h-7V16h7v1.7h-5v3.4h4.7v1.7h-4.7v3.9h5V28.4z"/>
			<path class="st2" d="M56.5,28.4h-2V17.7h-3.6V16h9.3v1.7h-3.6v10.7H56.5z"/>
			<path class="st2" d="M70.4,28.4h-2V17.7h-3.6V16H74v1.7h-3.6V28.4z"/>
			<path class="st2" d="M85.5,28.4h-2v-5.6h-5.7v5.6h-2V16h2v5.1h5.7V16h2V28.4z"/>
			<path class="st2" d="M95.6,28.4h-7V16h7v1.7h-5v3.4h4.7v1.7h-4.7v3.9h5V28.4z"/>
			<path class="st2" d="M112.4,22.1c0,2-0.6,3.6-1.7,4.7s-2.8,1.6-4.9,1.6h-3.5V16h3.8c2,0,3.5,0.5,4.6,1.6S112.4,20.2,112.4,22.1z
				 M110.3,22.1c0-3-1.4-4.5-4.2-4.5h-1.8v9h1.4C108.8,26.7,110.3,25.2,110.3,22.1z"/>
			<path class="st2" d="M122.6,28.4l-1.2-3.4h-4.7l-1.2,3.4h-2.1l4.6-12.5h2.2l4.6,12.5H122.6z M120.8,23.2l-1.2-3.4
				c-0.1-0.2-0.2-0.6-0.4-1.1c-0.1-0.5-0.3-0.8-0.3-1.1c-0.2,0.7-0.4,1.5-0.7,2.3l-1.1,3.2h3.7V23.2z"/>
			<path class="st2" d="M130.4,28.4h-2V17.7h-3.6V16h9.3v1.7h-3.6L130.4,28.4L130.4,28.4z"/>
			<path class="st2" d="M143.5,28.4l-1.2-3.4h-4.7l-1.2,3.4h-2.1l4.6-12.5h2.2l4.6,12.5H143.5z M141.7,23.2l-1.2-3.4
				c-0.1-0.2-0.2-0.6-0.4-1.1c-0.1-0.5-0.3-0.8-0.3-1.1c-0.2,0.7-0.4,1.5-0.7,2.3l-1.1,3.2h3.7V23.2z"/>
		</g>
	</g>
</g>
</svg>
