<?xml version="1.0" encoding="utf-8"?>
<!-- Generator: Adobe Illustrator 21.0.2, SVG Export Plug-In . SVG Version: 6.00 Build 0)  -->
<svg version="1.1" id="Layer_1" xmlns="http://www.w3.org/2000/svg" xmlns:xlink="http://www.w3.org/1999/xlink" x="0px" y="0px"
	 viewBox="0 0 159 70" style="enable-background:new 0 0 159 70;" xml:space="preserve">
<style type="text/css">
	.st0{fill:#0081C6;}
	.st1{fill:#F8971D;}
	.st2{fill:#54B948;}
</style>
<title>logo_cigna</title>
<g>
	<path class="st0" d="M39.5,22.7c0,0.4-0.4,0.8-1,1.5c-1.8,2.3-6,6.3-6,16.4c0,5.2,0.8,7.4,0.8,9.8c0,1.1-0.2,1.7-0.8,1.7
		C32,52.1,29,46.6,29,40c0-13.8,8.7-17.6,10.1-17.6C39.4,22.4,39.5,22.5,39.5,22.7z M17.6,22.4c1.4,0,10.1,3.9,10.1,17.6
		c0,6.6-2.2,12.1-3.5,12.1s-0.8-0.6-0.8-1.7c0-2.4,0.8-4.6,0.8-9.8c0-10.1-4.1-14.1-6-16.4c-0.5-0.7-1-1.1-1-1.5
		C17.2,22.5,17.3,22.4,17.6,22.4C17.5,22.4,17.6,22.4,17.6,22.4z"/>
	<path class="st1" d="M25.2,25.1c0.1,1.8,1.5,3.2,3.3,3.1c1.8-0.1,3.2-1.5,3.1-3.3c-0.1-1.8-1.4-3.1-3.2-3.1
		C26.6,21.9,25.2,23.3,25.2,25.1C25.2,25.1,25.2,25.1,25.2,25.1z"/>
	<path class="st2" d="M55.5,45.6C51,42.8,44.1,39.9,34.1,39C34,39.5,34,40,34,40.6c0,0.3,0.1,0.8,0.1,0.8c7.3,0.5,14.5,1.9,21.4,4.4
		h0.3L55.5,45.6z M33.5,8.4c-1-0.8-1.4-2.2-0.9-3.3C33,3.6,34,2.5,35.5,2c0.9,1.2,1.1,2.7,0.7,4.2C35.8,7.4,34.8,8.3,33.5,8.4z
		 M40.8,14.6c-0.4-1.2,0-2.4,1-3.1c1-0.9,2.5-1.3,3.9-1c0.1,1.4-0.5,2.8-1.6,3.7C43.2,14.9,41.9,15.1,40.8,14.6z M41.1,23.8
		c0.3-1.1,1.4-2,2.5-2c1.4-0.2,2.8,0.3,3.8,1.4c-0.7,1.2-2,2-3.4,2.1C42.9,25.4,41.7,24.8,41.1,23.8z M38.4,27.1
		c0.6-0.9,1.6-1.3,2.7-1c1.2,0.2,2.4,1,2.9,2.2c-0.9,0.8-2.2,1.2-3.5,0.9C39.5,28.9,38.6,28.1,38.4,27.1z M30.4,18.4
		c-1.2-1-1.6-2.5-1.1-4c0.6-1.8,2-3.3,3.5-3.7c1,1.4,1.3,3.3,0.8,5C33.2,17.2,32,18.3,30.4,18.4z M33.9,20.4c-0.5-1.3,0-2.7,1.1-3.5
		c1.2-1,2.9-1.5,4.4-1.2c0.1,1.6-0.6,3.1-1.8,4.2C36.7,20.8,35.2,21.1,33.9,20.4z M36.3,13c-0.8-1.3-0.8-3,0.1-4.2
		c1-1.6,2.9-2.7,4.4-2.7c0.7,1.4,0.4,3.5-0.7,5.2C39.3,12.5,37.8,13.2,36.3,13z M41,19.5c-0.1-1.4,0.8-2.7,2.2-3.3
		c1.6-0.7,3.6-0.7,4.8,0.1c-0.2,1.4-1.4,2.9-3.1,3.7C43.5,20.6,42,20.4,41,19.5z M25.7,6c-0.1-2.1,0.9-4.1,2.6-5.3
		C30,1.9,31,3.9,30.9,6C31,7.8,30,9.4,28.4,10C26.7,9.4,25.7,7.8,25.7,6z M0.9,45.9h0.3c6.9-2.5,14-3.9,21.4-4.4
		c0-0.1,0.1-0.5,0.1-0.8c0-0.5,0-1-0.1-1.6c-10,0.9-16.9,3.8-21.4,6.5L0.9,45.9z M20.6,6.2c-0.5-1.4-0.3-3,0.7-4.2
		c1.4,0.5,2.5,1.7,2.9,3.1c0.5,1.2,0.1,2.5-0.9,3.3C22,8.3,20.9,7.4,20.6,6.2z M12.5,14.1c-1.1-0.9-1.8-2.3-1.6-3.7
		c1.4-0.3,2.9,0.1,3.9,1c1,0.7,1.4,2,1,3.1C14.8,15.1,13.5,14.9,12.5,14.1z M12.7,25.2c-1.4-0.1-2.7-0.8-3.4-2.1
		c1-1,2.4-1.6,3.8-1.4c1.2,0.1,2.2,0.9,2.5,2C15,24.8,13.9,25.4,12.7,25.2z M16.1,29.1c-1.2,0.3-2.5-0.1-3.5-0.9
		c0.6-1.1,1.6-1.9,2.9-2.2c1-0.3,2.1,0.1,2.7,1C18,28.1,17.2,28.9,16.1,29.1z M23.1,15.7c-0.6-1.7-0.3-3.6,0.8-5
		c1.5,0.4,2.9,1.9,3.5,3.7c0.5,1.4,0.1,3-1.1,4C24.8,18.3,23.5,17.2,23.1,15.7z M19.1,19.9c-1.2-1-2-2.5-1.8-4.2
		c1.6-0.3,3.2,0.1,4.4,1.2c1,0.8,1.5,2.2,1.1,3.5C21.6,21.1,20.1,20.8,19.1,19.9z M16.6,11.2c-1-1.6-1.3-3.7-0.7-5.2
		c1.8,0.1,3.5,1.1,4.4,2.7c0.9,1.2,0.9,2.9,0.1,4.2C18.9,13.2,17.4,12.5,16.6,11.2z M11.8,20c-1.6-0.7-2.7-2.1-3.1-3.7
		c1.5-0.8,3.3-0.8,4.8-0.1c1.4,0.5,2.2,1.8,2.2,3.3C14.6,20.4,13.1,20.6,11.8,20z"/>
	<path class="st0" d="M111.9,39.1V26.3c0-1.7-0.1-5-0.2-5.7h4l0.2,2.6h0.1c1.1-1.9,3.2-3.1,5.4-3c4.2,0,6.5,3.1,6.5,6.9v12h-4.4
		V27.9c0-2.4-1.3-4.1-3.5-4.1s-3.5,1.9-3.5,4.1v11.2H111.9L111.9,39.1z M86.2,20.6h-4.4v18.4h4.4V20.6z M149,39.1
		c-0.3-2-0.5-4.1-0.6-6.1V21c-2-0.5-4.1-0.8-6.1-0.8c-7.4,0-10.7,5-10.7,10.5s2.5,8.9,7.3,8.9c2.4,0.1,4.6-1.3,5.7-3.5h0.1
		c0.1,0.6,0.2,2.5,0.3,3.1H149z M144.1,29.9c0,4.2-1.6,6-4.1,6c-2.4,0-3.8-2-3.8-5.6s2.1-6.7,6-6.7c0.6,0,1.2,0.1,1.8,0.2V29.9
		L144.1,29.9z M77.4,34.5c-1.6,0.7-3.3,1-5,0.9c-5.1,0-8.8-3.6-8.8-9.1s3.7-9.1,8.8-9.1c1.7-0.1,3.4,0.3,5,0.9v-3.9
		c-1.8-0.6-3.6-0.8-5.4-0.8c-7.8,0-13.1,5.4-13.1,13s4.8,13,13.1,13c1.8,0.1,3.7-0.3,5.4-0.8V34.5z M102.8,36.8v1.4
		c0,3.8-2.4,5.2-5.2,5.2c-1.8,0-3.5-0.3-5.1-1v3.7c1.8,0.5,3.7,0.8,5.6,0.8c5.4,0,8.9-2.2,8.9-9.7V21c-2-0.5-4.1-0.8-6.1-0.8
		c-7.4,0-10.7,5-10.7,10.5s2.5,8.9,7.3,8.9c2.1,0.1,4.1-0.9,5.2-2.6H102.8z M102.5,29.9c0,4.2-1.6,6-4.1,6s-3.8-2-3.8-5.6
		s2.1-6.7,6-6.7c0.6,0,1.2,0.1,1.8,0.2V29.9z M81.2,15.8c-0.1,1.5,1.2,2.7,2.7,2.8c1.5,0.1,2.7-1.2,2.8-2.7c0.1-1.5-1.2-2.7-2.7-2.8
		H84C82.5,13.1,81.3,14.2,81.2,15.8C81.2,15.7,81.2,15.8,81.2,15.8z"/>
	<path class="st0" d="M157.2,38.4c-0.5,0.5-1.1,0.7-1.8,0.7c-0.7,0-1.3-0.3-1.8-0.7s-0.7-1.1-0.7-1.8c0.1-1.3,1.1-2.4,2.4-2.4
		c0.7,0,1.3,0.3,1.8,0.7c0.5,0.5,0.7,1,0.7,1.7C157.9,37.3,157.7,37.9,157.2,38.4z M153.9,35.1c-0.8,0.8-0.8,2.2,0,3
		c0.4,0.4,0.9,0.7,1.5,0.7s1.1-0.2,1.5-0.7c0.8-0.8,0.8-2.2,0-3c-0.4-0.4-0.9-0.7-1.5-0.7C154.9,34.5,154.3,34.7,153.9,35.1z
		 M155.4,35.3h0.7c0.3,0.1,0.4,0.4,0.4,0.7c0,0.2-0.1,0.4-0.3,0.5c-0.1,0.1-0.3,0.1-0.4,0.1c0.2,0,0.3,0.1,0.5,0.3
		c0.1,0.1,0.1,0.3,0.1,0.4v0.5H156v-0.1c0.1-0.3-0.1-0.5-0.3-0.6h-0.9v0.9h-0.3v-2.7H155.4z M155.9,35.7l-0.6-0.1h-0.4v1h0.9
		c0.2,0,0.3-0.2,0.3-0.4l0,0C156.2,36,156.1,35.8,155.9,35.7z"/>
	<path class="st0" d="M155.5,59.3c-0.5,0.5-1.1,0.7-1.8,0.7c-0.7,0-1.3-0.3-1.8-0.7c-0.5-0.5-0.7-1.1-0.7-1.8
		c0.1-1.3,1.1-2.4,2.4-2.4c0.7,0,1.3,0.3,1.8,0.7c0.5,0.5,0.7,1,0.7,1.7C156.2,58.2,156,58.9,155.5,59.3z M152.3,56
		c-0.8,0.8-0.8,2.2,0,3c0.4,0.4,0.9,0.7,1.5,0.7c0.6,0,1.1-0.2,1.5-0.7c0.8-0.8,0.8-2.2,0-3c-0.4-0.4-0.9-0.7-1.5-0.7
		C153.2,55.5,152.7,55.7,152.3,56L152.3,56z M153.7,56.2h0.7c0.3,0.1,0.4,0.4,0.4,0.7c0,0.2-0.1,0.4-0.3,0.5l-0.4,0.1
		c0.2,0,0.3,0.1,0.5,0.3c0.1,0.1,0.1,0.3,0.1,0.4v0.5h-0.3v-0.1c0.1-0.3-0.1-0.5-0.3-0.6h-0.9v1h-0.5v-2.7L153.7,56.2L153.7,56.2
		L153.7,56.2z M154.3,56.6l-0.6-0.1h-0.4v1h0.9c0.2,0,0.3-0.2,0.3-0.4l0,0C154.5,56.9,154.4,56.8,154.3,56.6L154.3,56.6z"/>
	<path class="st0" d="M11.7,59.6H8.8v-2h8.1v2h-2.9v7.8h-2.2L11.7,59.6L11.7,59.6z"/>
	<path class="st0" d="M16.7,63.8L16.7,63.8c0-2.2,1.8-3.9,3.9-3.9c0.1,0,0.1,0,0.1,0c2.2-0.1,4,1.6,4.1,3.8v0.1l0,0
		c0,2.2-1.7,3.9-3.9,3.9c-0.1,0-0.1,0-0.2,0c-2.1,0.1-3.9-1.4-4.1-3.5C16.7,64,16.7,63.8,16.7,63.8z M22.7,63.8L22.7,63.8
		c0.1-1.1-0.8-2-2-2.1l0,0c-1-0.1-1.9,0.8-2,1.8c0,0.1,0,0.1,0,0.2l0,0c-0.1,1.1,0.8,2,2,2.1l0,0c1,0.1,1.9-0.8,2-1.8
		C22.7,63.9,22.7,63.8,22.7,63.8z"/>
	<path class="st0" d="M26.3,68.9l0.7-1.6c0.8,0.5,1.6,0.7,2.5,0.7c1.4,0,2.2-0.7,2.2-2v-0.4c-0.5,0.8-1.4,1.2-2.4,1.2
		c-1.8,0.1-3.3-1.4-3.3-3.2c0-0.1,0-0.2,0-0.3l0,0c-0.1-1.8,1.2-3.3,3.1-3.5c0.1,0,0.2,0,0.3,0c0.9-0.1,1.8,0.4,2.4,1.1v-1h2.1v5.7
		c0.1,1-0.3,2.2-1,2.9c-0.7,0.7-1.8,1-3.2,1C28.5,69.7,27.4,69.4,26.3,68.9z M31.7,63.4L31.7,63.4c0-1-0.8-1.8-1.8-1.8
		S28,62.3,28,63.4l0,0c0,0.9,0.8,1.7,1.7,1.7c0.1,0,0.1,0,0.1,0c0.9,0.1,1.7-0.5,1.8-1.4C31.7,63.5,31.7,63.4,31.7,63.4z"/>
	<path class="st0" d="M35.1,63.8L35.1,63.8c-0.1-2,1.4-3.8,3.5-3.9c0.1,0,0.1,0,0.2,0c2.5,0,3.7,2,3.7,4.1v0.6h-5.2
		c0.1,0.9,0.9,1.5,1.8,1.4c0.7,0,1.4-0.3,1.8-0.8l1.2,1c-0.8,0.9-1.9,1.4-3.1,1.4c-2,0.2-3.8-1.3-4-3.3
		C35.1,64.1,35.1,63.9,35.1,63.8z M40.3,63.1c-0.1-1-0.7-1.6-1.6-1.6c-0.8,0.1-1.6,0.7-1.6,1.6H40.3z"/>
	<path class="st0" d="M44,65.3v-3.5h-0.9V60H44v-1.9h2.1V60h1.8v1.8h-1.8V65c-0.1,0.3,0.1,0.7,0.5,0.7c0.1,0,0.1,0,0.2,0
		c0.4,0,0.7-0.1,1-0.3v1.7c-0.5,0.3-1.1,0.5-1.7,0.5C44.9,67.5,44,67,44,65.3z"/>
	<path class="st0" d="M49.2,57.3h2.1v3.8c0.5-0.7,1.3-1.2,2.2-1.2c1.6,0,2.5,1,2.5,2.7v4.8h-2.1v-4.2c0-1-0.5-1.5-1.3-1.5
		c-0.8,0-1.3,0.5-1.3,1.5v4.2h-2.1V57.3z"/>
	<path class="st0" d="M57.2,63.8L57.2,63.8c-0.1-2,1.4-3.8,3.5-3.9c0.1,0,0.1,0,0.2,0c2.5,0,3.7,2,3.7,4.1v0.6h-5.2
		c0.1,0.9,0.9,1.5,1.8,1.4c0.7,0,1.4-0.3,1.8-0.8l1.2,1c-0.8,0.9-1.9,1.4-3.1,1.4c-2,0.2-3.8-1.3-4-3.3
		C57.2,64.1,57.2,63.9,57.2,63.8z M62.5,63.1c-0.1-1-0.7-1.6-1.6-1.6c-0.8,0.1-1.6,0.7-1.6,1.6H62.5z"/>
	<path class="st0" d="M65.9,60H68v1.5c0.5-1,1.1-1.7,2.4-1.6v2.2h-0.1c-1.4,0-2.3,0.8-2.3,2.6v2.7h-2.1L65.9,60L65.9,60z"/>
	<path class="st0" d="M69.6,68.8c1-0.1,1.4-0.6,1.4-1.4h-0.8v-2.2h2.3v1.9c0,1.8-0.9,2.5-2.5,2.6L69.6,68.8z"/>
	<path class="st0" d="M77.3,65.3L77.3,65.3c0-1.6,1.2-2.4,3-2.4c0.7,0,1.2,0.1,1.8,0.3V63c0-0.8-0.5-1.4-1.6-1.4
		c-0.7,0-1.4,0.1-2.1,0.4L78,60.4c0.9-0.4,1.9-0.7,2.9-0.6c0.9-0.1,1.8,0.3,2.5,0.8c0.6,0.7,0.8,1.5,0.8,2.4v4.3h-2v-0.8
		c-0.6,0.7-1.4,1-2.3,1C78.5,67.5,77.3,66.8,77.3,65.3z M82.2,64.8v-0.4c-0.5-0.2-0.9-0.3-1.4-0.3c-0.9,0-1.4,0.4-1.4,1l0,0
		c0,0.6,0.5,0.9,1.2,0.9C81.3,66.1,82.2,65.6,82.2,64.8z"/>
	<path class="st0" d="M85.7,57.3h2.1v10.2h-2.1V57.3z"/>
	<path class="st0" d="M89.7,57.3h2.1v10.2h-2.1V57.3z"/>
	<path class="st0" d="M97.7,65.3v-3.5h-0.9V60h0.9v-1.9h2.1V60h1.8v1.8h-1.8V65c-0.1,0.3,0.1,0.7,0.5,0.7c0.1,0,0.1,0,0.2,0
		c0.4,0,0.7-0.1,1-0.3v1.7c-0.5,0.3-1.1,0.5-1.7,0.5C98.7,67.5,97.7,67,97.7,65.3z"/>
	<path class="st0" d="M102.9,57.3h2.1v3.8c0.5-0.7,1.3-1.2,2.2-1.2c1.6,0,2.5,1,2.5,2.7v4.8h-2.1v-4.2c0-1-0.5-1.5-1.3-1.5
		c-0.8,0-1.3,0.5-1.3,1.5v4.2h-2.1V57.3z"/>
	<path class="st0" d="M110.9,63.8L110.9,63.8c-0.1-2,1.4-3.8,3.5-3.9c0.1,0,0.1,0,0.2,0c2.5,0,3.7,2,3.7,4.1v0.6h-5.2
		c0.1,0.9,0.9,1.5,1.8,1.4c0.7,0,1.4-0.3,1.8-0.8l1.2,1c-0.8,0.9-1.9,1.4-3.1,1.4c-2,0.2-3.8-1.3-4-3.3
		C110.9,64.1,110.9,63.9,110.9,63.8z M116.2,63.1c-0.1-1-0.7-1.6-1.6-1.6c-0.8,0.1-1.6,0.7-1.6,1.6H116.2z"/>
	<path class="st0" d="M122.5,60h2.2l1.2,4.5l1.4-4.6h1.8l1.4,4.6l1.2-4.6h2.1l-2.4,7.5h-1.9l-1.4-4.6l-1.4,4.6h-1.9L122.5,60z"/>
	<path class="st0" d="M134.1,65.3L134.1,65.3c0-1.6,1.2-2.4,3-2.4c0.7,0,1.2,0.1,1.8,0.3V63c0-0.8-0.5-1.4-1.6-1.4
		c-0.7,0-1.4,0.1-2.1,0.4l-0.5-1.6c0.9-0.4,1.9-0.7,2.9-0.6c0.9-0.1,1.8,0.3,2.5,0.8c0.6,0.7,0.8,1.5,0.8,2.4v4.3h-2v-0.8
		c-0.6,0.7-1.4,1-2.3,1C135.3,67.5,134.1,66.8,134.1,65.3z M139,64.8v-0.4c-0.5-0.2-0.9-0.3-1.4-0.3c-0.9,0-1.4,0.4-1.4,1l0,0
		c0,0.6,0.5,0.9,1.2,0.9S139,65.6,139,64.8L139,64.8z"/>
	<path class="st0" d="M142.2,69.2l0.7-1.5c0.3,0.2,0.6,0.3,0.9,0.3c0.3,0.1,0.7-0.1,0.7-0.5l-2.9-7.5h2.2l1.7,5.1l1.6-5.1h2.2
		l-2.9,7.6c-0.6,1.5-1.2,2.1-2.5,2.1C143.4,69.7,142.7,69.5,142.2,69.2z"/>
	<path class="st0" d="M149.1,65.2h2.3v2.2h-2.3V65.2z"/>
</g>
</svg>
