<?xml version="1.0" encoding="utf-8"?>
<!-- Generator: Adobe Illustrator 21.0.2, SVG Export Plug-In . SVG Version: 6.00 Build 0)  -->
<svg version="1.1" id="Layer_1" xmlns="http://www.w3.org/2000/svg" xmlns:xlink="http://www.w3.org/1999/xlink" x="0px" y="0px"
	 viewBox="0 0 186 45" style="enable-background:new 0 0 186 45;" xml:space="preserve">
<style type="text/css">
	.st0{fill:#CE3238;}
	.st1{fill:#FFFFFF;}
	.st2{fill:none;stroke:#FFFFFF;stroke-width:1.42;stroke-miterlimit:10;}
</style>
<title>cta</title>
<path class="st0" d="M5.7,0h174.7c3.1,0,5.7,2.5,5.7,5.7v33.7c0,3.1-2.5,5.7-5.7,5.7H5.7C2.5,45,0,42.5,0,39.3V5.7
	C0,2.5,2.5,0,5.7,0z"/>
<path class="st1" d="M43.2,28.4V16.2h2v10.5h5.1v1.7L43.2,28.4z"/>
<path class="st1" d="M59.4,28.4h-6.9V16.2h6.9v1.7h-4.9v3.3h4.6v1.7h-4.6v3.8h4.9V28.4z"/>
<path class="st1" d="M69.5,28.4L68.3,25h-4.6l-1.2,3.4h-2.1l4.5-12.2h2.2l4.5,12.2H69.5z M67.8,23.3L66.6,20c-0.1-0.2-0.2-0.6-0.3-1
	s-0.3-0.8-0.3-1c-0.2,0.7-0.4,1.5-0.6,2.2l-1.1,3.2H67.8z"/>
<path class="st1" d="M75.2,23.5v4.9h-2V16.2h3.4c3.1,0,4.6,1.2,4.6,3.5c0,1.5-0.9,2.8-2.4,3.2l3.4,5.4h-2.3l-2.9-4.9L75.2,23.5z
	 M75.2,21.9h1.4c1.9,0,2.6-0.7,2.6-2s-0.9-1.9-2.7-1.9h-1.3L75.2,21.9z"/>
<path class="st1" d="M94.2,28.4h-2.4l-6-9.7h-0.1v0.5c0.1,1,0.1,2,0.1,2.8v6.3H84V16.2h2.4l6,9.6h0c0-0.1,0-0.6-0.1-1.4s0-1.4,0-1.9
	v-6.4h1.8L94.2,28.4z"/>
<path class="st1" d="M107.1,28.4l-3.5-10.1h-0.1c0.1,1.5,0.1,2.9,0.1,4.2v5.9h-1.8V16.2h2.8l3.4,9.7h0l3.5-9.7h2.8v12.1h-1.9v-6
	c0-0.6,0-1.4,0-2.4s0.1-1.6,0.1-1.8h-0.1l-3.6,10.1H107.1z"/>
<path class="st1" d="M122.6,28.5c-3.7,0-5.7-2.3-5.7-6.3s2-6.2,5.7-6.2s5.7,2.3,5.7,6.2S126.3,28.5,122.6,28.5z M122.6,26.8
	c2.4,0,3.6-1.5,3.6-4.6s-1.2-4.5-3.6-4.5s-3.6,1.6-3.6,4.5S120.3,26.8,122.6,26.8z"/>
<path class="st1" d="M132.9,23.5v4.9h-2V16.2h3.5c3.1,0,4.6,1.2,4.6,3.5c0,1.5-0.9,2.8-2.4,3.2l3.4,5.4h-2.3l-2.9-4.9L132.9,23.5z
	 M132.9,21.9h1.4c1.9,0,2.6-0.7,2.6-2s-0.9-1.9-2.7-1.9h-1.3L132.9,21.9z"/>
<path class="st1" d="M148.7,28.4h-6.9V16.2h6.9v1.7h-4.9v3.3h4.6v1.7h-4.6v3.8h4.9L148.7,28.4z"/>
<line class="st2" x1="154" y1="17.3" x2="159.5" y2="22.7"/>
<line class="st2" x1="154.4" y1="28.4" x2="159.7" y2="21.9"/>
</svg>
