<?xml version="1.0" encoding="utf-8"?>
<!-- Generator: Adobe Illustrator 21.0.2, SVG Export Plug-In . SVG Version: 6.00 Build 0)  -->
<svg version="1.1" id="Layer_1" xmlns="http://www.w3.org/2000/svg" xmlns:xlink="http://www.w3.org/1999/xlink" x="0px" y="0px"
	 viewBox="0 0 186 45" style="enable-background:new 0 0 186 45;" xml:space="preserve">
<style type="text/css">
	.st0{fill:#CE3238;}
	.st1{fill:none;stroke:#FFFFFF;stroke-width:1.42;stroke-miterlimit:10;}
	.st2{fill:#FFFFFF;}
</style>
<title>cta</title>
<path class="st0" d="M5.7,0h174.7c3.1,0,5.7,2.5,5.7,5.7v33.7c0,3.1-2.5,5.7-5.7,5.7H5.7C2.5,45,0,42.5,0,39.3V5.7
	C0,2.5,2.5,0,5.7,0z"/>
<g>
	<line class="st1" x1="155.8" y1="17.3" x2="161.3" y2="22.7"/>
	<line class="st1" x1="156.2" y1="28.4" x2="161.5" y2="21.9"/>
	<g>
		<g>
			<path class="st2" d="M25.5,28.4h-2V16h7v1.7h-5v3.9h4.7v1.7h-4.7V28.4z"/>
			<path class="st2" d="M32.5,28.4V16h2v12.4H32.5z"/>
			<path class="st2" d="M47.9,28.4h-2.5l-6.1-9.9h-0.1l0,0.6c0.1,1.1,0.1,2,0.1,2.9v6.4h-1.8V16h2.5l6.1,9.8h0.1
				c0-0.1,0-0.6-0.1-1.4c0-0.8-0.1-1.5-0.1-1.9V16h1.9V28.4z"/>
			<path class="st2" d="M61.1,22.1c0,2-0.6,3.6-1.7,4.7s-2.8,1.6-4.9,1.6H51V16h3.8c2,0,3.5,0.5,4.6,1.6S61.1,20.2,61.1,22.1z
				 M58.9,22.2c0-3-1.4-4.5-4.2-4.5H53v9h1.4C57.4,26.7,58.9,25.2,58.9,22.2z"/>
			<path class="st2" d="M78.8,22.2c0,2-0.5,3.6-1.5,4.7c-1,1.1-2.4,1.7-4.3,1.7c-1.9,0-3.3-0.6-4.3-1.7c-1-1.1-1.5-2.7-1.5-4.7
				s0.5-3.6,1.5-4.7c1-1.1,2.5-1.6,4.3-1.6c1.8,0,3.3,0.6,4.3,1.7C78.3,18.6,78.8,20.2,78.8,22.2z M69.4,22.2c0,1.5,0.3,2.7,0.9,3.5
				c0.6,0.8,1.5,1.2,2.7,1.2c1.2,0,2.1-0.4,2.7-1.2s0.9-1.9,0.9-3.5c0-1.5-0.3-2.7-0.9-3.5s-1.5-1.2-2.7-1.2c-1.2,0-2.1,0.4-2.8,1.2
				S69.4,20.7,69.4,22.2z"/>
			<path class="st2" d="M91,16v8c0,0.9-0.2,1.7-0.6,2.4c-0.4,0.7-1,1.2-1.7,1.6c-0.7,0.4-1.6,0.6-2.7,0.6c-1.5,0-2.7-0.4-3.6-1.2
				c-0.9-0.8-1.3-1.9-1.3-3.4v-8h2v7.8c0,1,0.2,1.8,0.7,2.3c0.5,0.5,1.2,0.7,2.2,0.7c1.9,0,2.9-1,2.9-3V16H91z"/>
			<path class="st2" d="M98.3,28.4h-2V17.8h-3.6V16h9.3v1.7h-3.6V28.4z"/>
			<path class="st2" d="M117.7,28.4h-2v-5.6h-5.7v5.6h-2V16h2v5.1h5.7V16h2V28.4z"/>
			<path class="st2" d="M131.8,22.2c0,2-0.5,3.6-1.5,4.7c-1,1.1-2.4,1.7-4.3,1.7c-1.9,0-3.3-0.6-4.3-1.7c-1-1.1-1.5-2.7-1.5-4.7
				s0.5-3.6,1.5-4.7c1-1.1,2.5-1.6,4.3-1.6c1.8,0,3.3,0.6,4.3,1.7C131.3,18.6,131.8,20.2,131.8,22.2z M122.3,22.2
				c0,1.5,0.3,2.7,0.9,3.5c0.6,0.8,1.5,1.2,2.7,1.2c1.2,0,2.1-0.4,2.7-1.2s0.9-1.9,0.9-3.5c0-1.5-0.3-2.7-0.9-3.5s-1.5-1.2-2.7-1.2
				c-1.2,0-2.1,0.4-2.8,1.2S122.3,20.7,122.3,22.2z"/>
			<path class="st2" d="M145.7,28.4h-2.2l-2.1-7.4c-0.1-0.3-0.2-0.8-0.3-1.4c-0.1-0.6-0.2-1-0.2-1.3c-0.1,0.4-0.1,0.8-0.3,1.4
				s-0.2,1-0.3,1.3l-2.1,7.4h-2.2l-1.6-6.2l-1.6-6.2h2.1l1.8,7.2c0.3,1.2,0.5,2.2,0.6,3.1c0.1-0.5,0.2-1,0.3-1.6
				c0.1-0.6,0.2-1.1,0.3-1.4l2-7.2h2l2.1,7.3c0.2,0.7,0.4,1.7,0.6,3c0.1-0.8,0.3-1.8,0.6-3.1l1.8-7.2h2.1L145.7,28.4z"/>
		</g>
	</g>
</g>
</svg>
